# xmcd CD database file
#
# Track frame offsets:
#	150
#	21235
#	37568
#	53323
#	72178
#	99641
#	114682
#	132287
#	148532
#	170635
#	182208
#	196617
#	211512
#	232065
#	246768
#
# Disc length: 3467 seconds
#
# Revision: 3
# Processed by: cddbd v1.5.2PL0 Copyright (c) Steve Scherf et al.
# Submitted via: CDex 1.51
#
DISCID=c50d890f
DTITLE=Die Oberland Dixielanders - Riverboat-Dixie
DYEAR=2006
DGENRE=Jazz
TTITLE0=Rosetta
TTITLE1=Doctor Jazz
TTITLE2=Bill Bailey
TTITLE3=I Can't Give You Anything
TTITLE4=See See Rider
TTITLE5=I Wanna Be Like You
TTITLE6=Ice Cream
TTITLE7=Blueberry Hill
TTITLE8=Bei mir bist du schön
TTITLE9=Luisiana Dixie
TTITLE10=Bourbon Street Parade
TTITLE11=Jazz Me Blues
TTITLE12=Mama don't Want
TTITLE13=Fidgety Feet
TTITLE14=Sing, Sing, Sing
EXTD=YEAR: 2006
EXTT0=
EXTT1=
EXTT2=
EXTT3=
EXTT4=
EXTT5=
EXTT6=
EXTT7=
EXTT8=
EXTT9=
EXTT10=
EXTT11=
EXTT12=
EXTT13=
EXTT14=
PLAYORDER=
